<svg width="22" height="22" viewBox="0 0 22 22" fill="none" xmlns="http://www.w3.org/2000/svg">
<g id="Paperclip">
<path id="Vector" d="M13.7499 6.87498L6.59129 14.1539C6.3543 14.4154 6.22696 14.7581 6.23565 15.111C6.24434 15.4638 6.38838 15.7998 6.63796 16.0494C6.88754 16.299 7.22354 16.443 7.57639 16.4517C7.92924 16.4604 8.27192 16.3331 8.53348 16.0961L17.0671 7.44216C17.5411 6.91905 17.7957 6.23369 17.7784 5.52799C17.761 4.82228 17.4729 4.15029 16.9737 3.65113C16.4746 3.15197 15.8026 2.86388 15.0969 2.84651C14.3912 2.82913 13.7058 3.0838 13.1827 3.55779L4.6491 12.2117C3.87645 12.9843 3.44238 14.0323 3.44238 15.125C3.44238 16.2177 3.87645 17.2656 4.6491 18.0383C5.42175 18.8109 6.46969 19.245 7.56238 19.245C8.65508 19.245 9.70302 18.8109 10.4757 18.0383L17.5311 11" stroke="#504B4B" stroke-width="1.2" stroke-linecap="round" stroke-linejoin="round"/>
</g>
</svg>
